<svg width="23" height="27" viewBox="0 0 23 27" fill="none" xmlns="http://www.w3.org/2000/svg">
<path d="M9.7211 26.9999C9.09803 26.9999 8.56728 26.7807 8.12883 26.3422C7.69038 25.9038 7.47115 25.373 7.47115 24.7499V17.8412H2.72594C1.96825 17.8412 1.32451 17.5787 0.794705 17.0537C0.264902 16.5287 0 15.8922 0 15.1441V4.94704C0 3.58552 0.486531 2.42064 1.45959 1.45238C2.43266 0.484127 3.60475 0 4.97589 0H22.4999V15.1441C22.4999 15.8922 22.2326 16.5287 21.698 17.0537C21.1634 17.5787 20.5172 17.8412 19.7595 17.8412H15.0143V24.7499C15.0143 25.373 14.7951 25.9038 14.3566 26.3422C13.9182 26.7807 13.3874 26.9999 12.7644 26.9999H9.7211ZM2.24995 10.0961H20.2499V2.24995H18.2739V8.03358H16.024V2.24995H13.8893V5.2211H11.6394V2.24995H4.97589C4.2182 2.24995 3.57445 2.51004 3.04465 3.03023C2.51485 3.55041 2.24995 4.18935 2.24995 4.94704V10.0961ZM2.72594 15.5913H19.7595C19.8941 15.5913 20.0095 15.548 20.1057 15.4615C20.2019 15.3749 20.2499 15.2691 20.2499 15.1441V12.3461H2.24995V15.1441C2.24995 15.2691 2.29562 15.3749 2.38697 15.4615C2.47833 15.548 2.59132 15.5913 2.72594 15.5913ZM2.24995 15.5913C2.24995 15.5913 2.24995 15.548 2.24995 15.4615C2.24995 15.3749 2.24995 15.2691 2.24995 15.1441V12.3461V15.1441C2.24995 15.2691 2.24995 15.3749 2.24995 15.4615C2.24995 15.548 2.24995 15.5913 2.24995 15.5913Z" fill="black"/>
</svg>
